#!OML:ASF H:\Dans Jumps\Project 1\Capture day 1\Session 1\subject.ASF
:FULLY-SPECIFIED
:DEGREES
451
root 0.156384 17.3274 -6.40802 8.06869 -0.324151 -0.6432
lowerback 3.39609 0.119787 -0.71467
upperback 5.58337 0.115972 1.30164
thorax 3.84528 -0.000624952 1.74262
lowerneck -12.3596 0.202729 -1.2409
upperneck 35.096 0.480495 0.455814
head 14.0102 0.106606 0.477562
rclavicle -7.95139e-016 1.98785e-016
rhumerus -42.6967 -22.6218 -66.2715
rradius 24.8828
rwrist 34.0522
rhand -18.3599 -22.4641
rfingers 7.12502
rthumb 7.92298 -52.2956
lclavicle -7.95139e-016 1.98785e-016
lhumerus -36.8109 3.95659 79.6311
lradius 20.3816
lwrist 13.9837
lhand -29.5423 -9.77238
lfingers 7.12502
lthumb -2.87542 20.188
rfemur -21.8781 -2.90609 19.0302
rtibia 35.2909
rfoot -19.8466 -1.42884
rtoes 6.89193
lfemur -20.6297 5.70138 -19.0103
ltibia 32.0108
lfoot -16.0037 9.62884
ltoes 1.20967
452
root 0.156929 17.3274 -6.40911 8.06535 -0.324906 -0.644562
lowerback 3.39247 0.119535 -0.714356
upperback 5.59154 0.115521 1.30377
thorax 3.85588 -0.00101006 1.74469
lowerneck -12.3544 0.200311 -1.24735
upperneck 35.0876 0.479831 0.45241
head 14.0053 0.105074 0.477167
rclavicle -1.98785e-016 4.57205e-015
rhumerus -42.6642 -22.5628 -66.3194
rradius 24.8978
rwrist 34.093
rhand -18.4824 -22.4924
rfingers 7.12502
rthumb 7.80473 -52.3283
lclavicle -1.98785e-016 4.57205e-015
lhumerus -36.8 3.99843 79.6243
lradius 20.3883
lwrist 13.9897
lhand -29.5036 -9.68037
lfingers 7.12502
lthumb -2.83807 20.2805
rfemur -21.8755 -2.89441 19.0288
rtibia 35.2867
rfoot -19.8426 -1.43912
rtoes 6.88818
lfemur -20.6296 5.70586 -19.011
ltibia 32.0096
lfoot -16.0022 9.62498
ltoes 1.21051
453
root 0.157509 17.3273 -6.41029 8.06196 -0.327203 -0.644681
lowerback 3.38927 0.120094 -0.715606
upperback 5.60013 0.116179 1.3043
thorax 3.86665 -0.000870729 1.746
lowerneck -12.3524 0.196953 -1.2518
upperneck 35.081 0.476963 0.449875
head 14.0019 0.102958 0.476453
rclavicle 6.36111e-015 2.52457e-014
rhumerus -42.6263 -22.5091 -66.3672
rradius 24.9218
rwrist 34.0844
rhand -18.5406 -22.5039
rfingers 7.12502
rthumb 7.74861 -52.3419
lclavicle 6.36111e-015 2.52457e-014
lhumerus -36.7899 4.0186 79.6314
lradius 20.3786
lwrist 13.9663
lhand -29.55 -9.76521
lfingers 7.12502
lthumb -2.88288 20.1951
rfemur -21.8751 -2.88131 19.0259
rtibia 35.2852
rfoot -19.8403 -1.45057
rtoes 6.87312
lfemur -20.6299 5.71309 -19.0135
ltibia 32.0093
lfoot -16.0025 9.61951
ltoes 1.21126
454
root 0.158065 17.3273 -6.41146 8.05699 -0.329128 -0.644663
lowerback 3.38743 0.120875 -0.716973
upperback 5.60818 0.117172 1.30358
thorax 3.87607 -0.000527328 1.74608
lowerneck -12.3471 0.195049 -1.25481
upperneck 35.0754 0.475575 0.448012
head 13.9982 0.101754 0.475975
rclavicle -3.57812e-015 -1.23246e-014
rhumerus -42.5799 -22.4635 -66.413
rradius 24.9482
rwrist 34.0124
rhand -18.537 -22.4857
rfingers 7.12502
rthumb 7.75203 -52.3236
lclavicle -3.57812e-015 -1.23246e-014
lhumerus -36.7813 4.02053 79.6483
lradius 20.3689
lwrist 13.9456
lhand -29.6271 -9.89873
lfingers 7.12502
lthumb -2.95738 20.0605
rfemur -21.8735 -2.86726 19.0227
rtibia 35.285
rfoot -19.8392 -1.46439
rtoes 6.86178
lfemur -20.6287 5.72139 -19.016
ltibia 32.0098
lfoot -16.0036 9.61353
ltoes 1.20418
455
root 0.158628 17.3272 -6.41294 8.05344 -0.331644 -0.643598
lowerback 3.38696 0.122055 -0.719027
upperback 5.61521 0.118744 1.30132
thorax 3.88364 0.00013164 1.74494
lowerneck -12.3297 0.191471 -1.26951
upperneck 35.0603 0.46942 0.461175
head 13.9874 0.0990119 0.482801
rclavicle 4.17448e-015 1.72943e-014
rhumerus -42.5278 -22.4455 -66.4458
rradius 24.9765
rwrist 33.9056
rhand -18.4511 -22.4522
rfingers 7.12502
rthumb 7.83493 -52.287
lclavicle 4.17448e-015 1.72943e-014
lhumerus -36.7712 4.01488 79.6678
lradius 20.3761
lwrist 13.9515
lhand -29.6615 -9.93115
lfingers 7.12502
lthumb -2.99051 20.0276
rfemur -21.8753 -2.85134 19.0185
rtibia 35.2855
rfoot -19.8369 -1.47906
rtoes 6.85577
lfemur -20.6308 5.7308 -19.0199
ltibia 32.0109
lfoot -16.0029 9.60622
ltoes 1.19811
456
root 0.159217 17.3271 -6.41455 8.05029 -0.333753 -0.646293
lowerback 3.3877 0.123821 -0.716768
upperback 5.62097 0.121132 1.2991
thorax 3.88915 0.00139161 1.7414
lowerneck -12.2995 0.186994 -1.2913
upperneck 35.0371 0.460672 0.482884
head 13.97 0.0954144 0.493838
rclavicle -3.67752e-015 1.19271e-015
rhumerus -42.4756 -22.4225 -66.4848
rradius 25.0146
rwrist 33.7778
rhand -18.3466 -22.4246
rfingers 7.12502
rthumb 7.93581 -52.2556
lclavicle -3.67752e-015 1.19271e-015
lhumerus -36.7575 3.99941 79.6912
lradius 20.3964
lwrist 13.9859
lhand -29.6555 -9.88708
lfingers 7.12502
lthumb -2.9848 20.0718
rfemur -21.8773 -2.83366 19.0183
rtibia 35.2845
rfoot -19.8346 -1.49472
rtoes 6.85774
lfemur -20.6339 5.74019 -19.0197
ltibia 32.0121
lfoot -16.0029 9.59757
ltoes 1.19685
457
root 0.159782 17.327 -6.41635 8.04732 -0.338149 -0.649494
lowerback 3.39089 0.127173 -0.714596
upperback 5.62467 0.12565 1.29668
thorax 3.89107 0.00375125 1.73769
lowerneck -12.268 0.18144 -1.32197
upperneck 35.0179 0.44834 0.517207
head 13.9542 0.0907608 0.510996
rclavicle 2.98177e-016 1.39149e-015
rhumerus -42.4282 -22.3993 -66.5249
rradius 25.0472
rwrist 33.7018
rhand -18.3057 -22.4048
rfingers 7.12502
rthumb 7.97528 -52.2344
lclavicle 2.98177e-016 1.39149e-015
lhumerus -36.7419 3.97961 79.7164
lradius 20.4307
lwrist 14.0475
lhand -29.5997 -9.76521
lfingers 7.12502
lthumb -2.93089 20.1944
rfemur -21.8792 -2.81137 19.0185
rtibia 35.2816
rfoot -19.831 -1.51335
rtoes 6.85431
lfemur -20.6372 5.75163 -19.019
ltibia 32.0124
lfoot -16.0026 9.5871
ltoes 1.20926
